# xmcd
# 
# Track frame offsets:
#     150
#     19590
#     36955
#     52308
#     70870
#     85138
#     103394
#     121942
#     145121
#     163950
# 
# Disc length: 2529
# 
# Revision: 0
# Processed by: cddbd v1.5.2PL0 Copyright (c) Steve Scherf et al.
# Submitted via: fre:ac v1.0.31
# 
DISCID=8e09df0a
DTITLE=Fortaleza - De Nuestra Tierra
DYEAR=0
DGENRE=Folklore
TTITLE0=Bella palomita - Saya
TTITLE1=Nuestra casita - Huayno
TTITLE2=Que viva mi tierra - Huayno
TTITLE3=Clavel de mi pecho Huayno
TTITLE4=Ojitos traidores -  Saya
TTITLE5=Embrujo - Takirari
TTITLE6=Popurri Quzqueño - Huayno
TTITLE7=Yo soy Huancaino - Huayno
TTITLE8=Gallo mañoso - Pasacalle
TTITLE9=Carnaval - Carnaval
EXTD=
EXTT0=
EXTT1=
EXTT2=
EXTT3=
EXTT4=
EXTT5=
EXTT6=
EXTT7=
EXTT8=
EXTT9=
PLAYORDER=
